<svg width="391" height="207" viewBox="0 0 391 207" fill="none" xmlns="http://www.w3.org/2000/svg">
<g clip-path="url(#clip0_1_3733)">
<mask id="mask0_1_3733" style="mask-type:luminance" maskUnits="userSpaceOnUse" x="0" y="0" width="391" height="207">
<path d="M391 0H0V207H391V0Z" fill="white"/>
</mask>
<g mask="url(#mask0_1_3733)">
<mask id="mask1_1_3733" style="mask-type:luminance" maskUnits="userSpaceOnUse" x="0" y="0" width="391" height="207">
<path d="M391 0H0V207H391V0Z" fill="white"/>
</mask>
<g mask="url(#mask1_1_3733)">
<path d="M391 0H0V207H391V0Z" fill="#03034D"/>
</g>
<mask id="mask2_1_3733" style="mask-type:luminance" maskUnits="userSpaceOnUse" x="0" y="0" width="391" height="207">
<path d="M391 0H0V207H391V0Z" fill="white"/>
</mask>
<g mask="url(#mask2_1_3733)">
<path opacity="0.1" fill-rule="evenodd" clip-rule="evenodd" d="M54.8867 0C47.6906 33.4952 41.9067 68.5265 37.5434 105.071C24.9504 112.531 12.436 119.967 0 127.381V207H258.794C251.765 195.62 244.493 184.448 236.974 173.491C294.354 145.847 345.763 114.366 391 79.0522V0H54.8867Z" fill="#0000C5"/>
</g>
<mask id="mask3_1_3733" style="mask-type:luminance" maskUnits="userSpaceOnUse" x="0" y="0" width="391" height="207">
<path d="M391 0H0V207H391V0Z" fill="white"/>
</mask>
<g mask="url(#mask3_1_3733)">
<path opacity="0.1" fill-rule="evenodd" clip-rule="evenodd" d="M137.237 0C129.677 33.4952 123.602 68.5265 119.018 105.071C78.5782 127.875 38.9085 150.463 0 172.835V207H351.443C344.059 195.619 336.417 184.448 328.518 173.491C350.158 163.567 370.986 153.147 391 142.234V0H137.237Z" fill="#0000C5"/>
</g>
<mask id="mask4_1_3733" style="mask-type:luminance" maskUnits="userSpaceOnUse" x="0" y="0" width="391" height="207">
<path d="M391 0H0V207H391V0Z" fill="white"/>
</mask>
<g mask="url(#mask4_1_3733)">
<path opacity="0.1" fill-rule="evenodd" clip-rule="evenodd" d="M59.8671 0C51.9416 33.4952 45.5712 68.5265 40.766 105.071C27.0935 112.426 13.505 119.757 0 127.067V207H284.434C276.692 195.62 268.683 184.448 260.402 173.491C307.641 152.826 351.202 130.017 391 105.066V0H59.8671Z" fill="#0000C5"/>
</g>
<mask id="mask5_1_3733" style="mask-type:luminance" maskUnits="userSpaceOnUse" x="0" y="0" width="391" height="207">
<path d="M391 0H0V207H391V0Z" fill="white"/>
</mask>
<g mask="url(#mask5_1_3733)">
<path opacity="0.1" fill-rule="evenodd" clip-rule="evenodd" d="M40.766 0C27.094 7.70325 13.5055 15.3839 0 23.0403V207H340.751C317.609 159.038 290.826 113.839 260.402 71.6733C307.638 50.0275 351.196 26.1342 390.991 0H40.766Z" fill="#0000C5"/>
</g>
<mask id="mask6_1_3733" style="mask-type:luminance" maskUnits="userSpaceOnUse" x="0" y="0" width="391" height="207">
<path d="M391 0H0V207H391V0Z" fill="white"/>
</mask>
<g mask="url(#mask6_1_3733)">
<path opacity="0.1" fill-rule="evenodd" clip-rule="evenodd" d="M43.9742 0C42.8373 8.17671 41.7677 16.4248 40.7661 24.745C27.0935 32.7792 13.5055 40.7895 0 48.7752V207H324.421C305.256 169.362 283.917 133.483 260.402 99.4944C307.641 76.9179 351.202 51.9975 391 24.7389V0H43.9742Z" fill="#0000C5"/>
</g>
<mask id="mask7_1_3733" style="mask-type:luminance" maskUnits="userSpaceOnUse" x="0" y="0" width="391" height="207">
<path d="M391 0H0V207H391V0Z" fill="white"/>
</mask>
<g mask="url(#mask7_1_3733)">
<path opacity="0.1" fill-rule="evenodd" clip-rule="evenodd" d="M219.211 0C203.066 38.0266 188.611 78.6505 175.865 121.826C115.682 145.569 57.0622 169.109 0 192.439V207H391V0H219.211Z" fill="#0000C5"/>
</g>
<mask id="mask8_1_3733" style="mask-type:luminance" maskUnits="userSpaceOnUse" x="0" y="0" width="391" height="207">
<path d="M391 0H0V207H391V0Z" fill="white"/>
</mask>
<g mask="url(#mask8_1_3733)">
<path opacity="0.1" fill-rule="evenodd" clip-rule="evenodd" d="M391 0H306.481C287.507 41.6135 270.761 86.4811 256.265 134.535C190.458 158.902 126.456 183.057 64.2231 207H391L391 0Z" fill="#0000C5"/>
</g>
<mask id="mask9_1_3733" style="mask-type:luminance" maskUnits="userSpaceOnUse" x="0" y="0" width="391" height="207">
<path d="M391 0H0V207H391V0Z" fill="white"/>
</mask>
<g mask="url(#mask9_1_3733)">
<path opacity="0.1" fill-rule="evenodd" clip-rule="evenodd" d="M391 0H225.009C207.752 38.121 192.424 78.9125 179.045 122.329C117.877 143.612 58.2004 164.738 0 185.705V207H391V0Z" fill="#0000C5"/>
</g>
<mask id="mask10_1_3733" style="mask-type:luminance" maskUnits="userSpaceOnUse" x="0" y="0" width="391" height="207">
<path d="M391 0H0V207H391V0Z" fill="white"/>
</mask>
<g mask="url(#mask10_1_3733)">
<path opacity="0.1" fill-rule="evenodd" clip-rule="evenodd" d="M391 0H202.487C200.522 6.16472 198.59 12.3749 196.698 18.6436C129.345 43.5571 63.781 68.2607 0 92.751V207H391V0Z" fill="#0000C5"/>
</g>
<mask id="mask11_1_3733" style="mask-type:luminance" maskUnits="userSpaceOnUse" x="0" y="0" width="391" height="207">
<path d="M391 0H0V207H391V0Z" fill="white"/>
</mask>
<g mask="url(#mask11_1_3733)">
<path opacity="0.1" fill-rule="evenodd" clip-rule="evenodd" d="M391 0H206.085C201.391 14.0871 196.873 28.4375 192.54 43.0623C126.657 68.7891 62.4808 94.298 0 119.583V207H391V0Z" fill="#0000C5"/>
</g>
<mask id="mask12_1_3733" style="mask-type:luminance" maskUnits="userSpaceOnUse" x="0" y="0" width="391" height="207">
<path d="M391 0H0V207H391V0Z" fill="white"/>
</mask>
<g mask="url(#mask12_1_3733)">
<path opacity="0.1" fill-rule="evenodd" clip-rule="evenodd" d="M391 54.8232C364.672 93.1082 339.846 135.044 316.558 180.566C273.343 189.345 230.864 198.157 189.101 207H391V54.8232Z" fill="#0000C5"/>
</g>
<mask id="mask13_1_3733" style="mask-type:luminance" maskUnits="userSpaceOnUse" x="0" y="0" width="391" height="207">
<path d="M391 0H0V207H391V0Z" fill="white"/>
</mask>
<g mask="url(#mask13_1_3733)">
<path opacity="0.1" fill-rule="evenodd" clip-rule="evenodd" d="M391 64.458C365.656 100.279 341.844 139.348 319.593 181.612C267.499 190.006 216.393 198.471 166.261 207H391V64.458Z" fill="#0000C5"/>
</g>
<mask id="mask14_1_3733" style="mask-type:luminance" maskUnits="userSpaceOnUse" x="0" y="0" width="391" height="207">
<path d="M391 0H0V207H391V0Z" fill="white"/>
</mask>
<g mask="url(#mask14_1_3733)">
<path opacity="0.1" fill-rule="evenodd" clip-rule="evenodd" d="M391 20.2734C379.08 40.2887 367.514 61.0906 356.31 82.6759C232.017 105.177 113.257 128 0 151.109V207H391V20.2734Z" fill="#0000C5"/>
</g>
<mask id="mask15_1_3733" style="mask-type:luminance" maskUnits="userSpaceOnUse" x="0" y="0" width="391" height="207">
<path d="M391 0H0V207H391V0Z" fill="white"/>
</mask>
<g mask="url(#mask15_1_3733)">
<path opacity="0.1" fill-rule="evenodd" clip-rule="evenodd" d="M391 27.958C376.05 52.7855 361.601 78.7923 347.662 105.976C226.59 130.137 110.712 154.541 0 179.158V207H391V27.958Z" fill="#0000C5"/>
</g>
<mask id="mask16_1_3733" style="mask-type:luminance" maskUnits="userSpaceOnUse" x="0" y="0" width="391" height="207">
<path d="M391 0H0V207H391V0Z" fill="white"/>
</mask>
<g mask="url(#mask16_1_3733)">
<path opacity="0.05" fill-rule="evenodd" clip-rule="evenodd" d="M336.113 207C343.31 173.505 349.093 138.473 353.456 101.929C366.05 94.4694 378.564 87.0324 391 79.6192V0H132.206C139.235 11.3803 146.507 22.5521 154.026 33.5083C96.6463 61.1529 45.2371 92.6339 0 127.948V207H336.113Z" fill="#22B4B4"/>
</g>
<mask id="mask17_1_3733" style="mask-type:luminance" maskUnits="userSpaceOnUse" x="0" y="0" width="391" height="207">
<path d="M391 0H0V207H391V0Z" fill="white"/>
</mask>
<g mask="url(#mask17_1_3733)">
<path opacity="0.05" fill-rule="evenodd" clip-rule="evenodd" d="M253.763 207C261.323 173.505 267.399 138.473 271.982 101.929C312.422 79.1252 352.092 56.5367 391 34.1647V0H39.5574C46.9412 11.381 54.5832 22.5521 62.482 33.5083C40.8421 43.4328 20.0137 53.8534 0 64.7662V207H253.763Z" fill="#22B4B4"/>
</g>
<mask id="mask18_1_3733" style="mask-type:luminance" maskUnits="userSpaceOnUse" x="0" y="0" width="391" height="207">
<path d="M391 0H0V207H391V0Z" fill="white"/>
</mask>
<g mask="url(#mask18_1_3733)">
<path opacity="0.05" fill-rule="evenodd" clip-rule="evenodd" d="M331.133 207C339.058 173.505 345.429 138.473 350.234 101.929C363.907 94.5744 377.495 87.2428 391 79.9336V0H106.566C114.308 11.3797 122.317 22.5521 130.598 33.5083C83.359 54.1734 39.798 76.9832 0 101.934V207H331.133Z" fill="#22B4B4"/>
</g>
<mask id="mask19_1_3733" style="mask-type:luminance" maskUnits="userSpaceOnUse" x="0" y="0" width="391" height="207">
<path d="M391 0H0V207H391V0Z" fill="white"/>
</mask>
<g mask="url(#mask19_1_3733)">
<path opacity="0.05" fill-rule="evenodd" clip-rule="evenodd" d="M350.234 207C363.906 199.297 377.495 191.616 391 183.96V0H50.2488C73.3914 47.9613 100.174 93.1611 130.598 135.326C83.3622 156.972 39.8043 180.866 0.00878906 207H350.234Z" fill="#22B4B4"/>
</g>
<mask id="mask20_1_3733" style="mask-type:luminance" maskUnits="userSpaceOnUse" x="0" y="0" width="391" height="207">
<path d="M391 0H0V207H391V0Z" fill="white"/>
</mask>
<g mask="url(#mask20_1_3733)">
<path opacity="0.05" fill-rule="evenodd" clip-rule="evenodd" d="M347.026 207C348.163 198.824 349.232 190.575 350.234 182.255C363.907 174.221 377.494 166.21 391 158.225V0H66.5791C85.7444 37.638 107.083 73.5165 130.598 107.505C83.359 130.082 39.798 155.003 0 182.261V207H347.026Z" fill="#22B4B4"/>
</g>
<mask id="mask21_1_3733" style="mask-type:luminance" maskUnits="userSpaceOnUse" x="0" y="0" width="391" height="207">
<path d="M391 0H0V207H391V0Z" fill="white"/>
</mask>
<g mask="url(#mask21_1_3733)">
<path opacity="0.05" fill-rule="evenodd" clip-rule="evenodd" d="M171.789 207C187.934 168.973 202.389 128.35 215.135 85.1736C275.319 61.4305 333.938 37.8911 391 14.5605V0H0V207H171.789Z" fill="#22B4B4"/>
</g>
<mask id="mask22_1_3733" style="mask-type:luminance" maskUnits="userSpaceOnUse" x="0" y="0" width="391" height="207">
<path d="M391 0H0V207H391V0Z" fill="white"/>
</mask>
<g mask="url(#mask22_1_3733)">
<path opacity="0.05" fill-rule="evenodd" clip-rule="evenodd" d="M0 207H84.5196C103.494 165.386 120.239 120.519 134.735 72.465C200.542 48.0978 264.544 23.9424 326.777 0H0V207Z" fill="#22B4B4"/>
</g>
<mask id="mask23_1_3733" style="mask-type:luminance" maskUnits="userSpaceOnUse" x="0" y="0" width="391" height="207">
<path d="M391 0H0V207H391V0Z" fill="white"/>
</mask>
<g mask="url(#mask23_1_3733)">
<path opacity="0.05" fill-rule="evenodd" clip-rule="evenodd" d="M0 207H165.991C183.248 168.879 198.576 128.088 211.955 84.6711C273.123 63.3885 332.8 42.2615 391 21.2943V0H0V207Z" fill="#22B4B4"/>
</g>
<mask id="mask24_1_3733" style="mask-type:luminance" maskUnits="userSpaceOnUse" x="0" y="0" width="391" height="207">
<path d="M391 0H0V207H391V0Z" fill="white"/>
</mask>
<g mask="url(#mask24_1_3733)">
<path opacity="0.05" fill-rule="evenodd" clip-rule="evenodd" d="M0 207H188.513C190.478 200.835 192.41 194.625 194.302 188.357C261.655 163.443 327.219 138.739 391 114.249V0H0V207Z" fill="#22B4B4"/>
</g>
<mask id="mask25_1_3733" style="mask-type:luminance" maskUnits="userSpaceOnUse" x="0" y="0" width="391" height="207">
<path d="M391 0H0V207H391V0Z" fill="white"/>
</mask>
<g mask="url(#mask25_1_3733)">
<path opacity="0.05" fill-rule="evenodd" clip-rule="evenodd" d="M0 207H184.915C189.609 192.913 194.127 178.563 198.46 163.938C264.342 138.211 328.519 112.702 391 87.4169V0H0V207Z" fill="#22B4B4"/>
</g>
<mask id="mask26_1_3733" style="mask-type:luminance" maskUnits="userSpaceOnUse" x="0" y="0" width="391" height="207">
<path d="M391 0H0V207H391V0Z" fill="white"/>
</mask>
<g mask="url(#mask26_1_3733)">
<path opacity="0.05" fill-rule="evenodd" clip-rule="evenodd" d="M0 152.176C26.3285 113.892 51.1544 71.9555 74.4417 26.4337C117.657 17.6546 160.136 8.84278 201.9 0H0V152.176Z" fill="#22B4B4"/>
</g>
<mask id="mask27_1_3733" style="mask-type:luminance" maskUnits="userSpaceOnUse" x="0" y="0" width="391" height="207">
<path d="M391 0H0V207H391V0Z" fill="white"/>
</mask>
<g mask="url(#mask27_1_3733)">
<path opacity="0.05" fill-rule="evenodd" clip-rule="evenodd" d="M0 142.542C25.3443 106.72 49.1565 67.6514 71.4075 25.3882C123.501 16.9934 174.607 8.52923 224.739 0H0V142.542Z" fill="#22B4B4"/>
</g>
<mask id="mask28_1_3733" style="mask-type:luminance" maskUnits="userSpaceOnUse" x="0" y="0" width="391" height="207">
<path d="M391 0H0V207H391V0Z" fill="white"/>
</mask>
<g mask="url(#mask28_1_3733)">
<path opacity="0.05" fill-rule="evenodd" clip-rule="evenodd" d="M0 186.727C11.9205 166.711 23.4856 145.909 34.6905 124.324C158.983 101.823 277.743 79 391 55.891V0H0V186.727Z" fill="#22B4B4"/>
</g>
<mask id="mask29_1_3733" style="mask-type:luminance" maskUnits="userSpaceOnUse" x="0" y="0" width="391" height="207">
<path d="M391 0H0V207H391V0Z" fill="white"/>
</mask>
<g mask="url(#mask29_1_3733)">
<path opacity="0.05" fill-rule="evenodd" clip-rule="evenodd" d="M0 179.042C14.9498 154.215 29.3991 128.208 43.3378 101.024C164.41 76.8631 280.288 52.4587 391 27.8423V0H0V179.042Z" fill="#22B4B4"/>
</g>
</g>
</g>
<defs>
<clipPath id="clip0_1_3733">
<rect width="391" height="207" rx="20" fill="white"/>
</clipPath>
</defs>
</svg>
