<svg width="43" height="43" viewBox="0 0 43 43" fill="none" xmlns="http://www.w3.org/2000/svg">
<path fill-rule="evenodd" clip-rule="evenodd" d="M33.4054 24.9615H39.2361C39.7017 24.9625 40.1478 25.1478 40.477 25.477C40.8062 25.8062 40.9916 26.2523 40.9926 26.7179V37.4318C40.9916 37.8974 40.8063 38.3436 40.4771 38.6728C40.1479 39.002 39.7017 39.1873 39.2361 39.1883H38.6215V39.9001C38.6204 40.3656 38.435 40.8117 38.1058 41.1408C37.7766 41.4699 37.3305 41.6553 36.865 41.6563H19.5299C19.0643 41.6552 18.6181 41.4698 18.289 41.1407C17.9598 40.8115 17.7744 40.3653 17.7734 39.8997V38.4677H3.37236C3.23008 38.4677 3.09363 38.4112 2.99303 38.3106C2.89242 38.2099 2.83589 38.0735 2.83587 37.9312V35.7858C2.83589 35.6435 2.89242 35.507 2.99303 35.4064C3.09363 35.3058 3.23008 35.2493 3.37236 35.2493H5.70435V33.6418C5.70434 33.5713 5.71821 33.5016 5.74516 33.4365C5.77211 33.3714 5.81162 33.3122 5.86143 33.2624C5.91124 33.2126 5.97038 33.1731 6.03546 33.1461C6.10055 33.1191 6.17031 33.1052 6.24076 33.1052H7.131L7.36346 17.6605H7.22783C7.08554 17.6605 6.94907 17.604 6.84844 17.5034C6.74782 17.4028 6.69128 17.2663 6.69125 17.124V15.2711H2.5452C2.47475 15.2711 2.40499 15.2573 2.3399 15.2303C2.27482 15.2033 2.21568 15.1638 2.16587 15.114C2.11606 15.0642 2.07655 15.005 2.0496 14.9399C2.02264 14.8749 2.00878 14.8051 2.00879 14.7346V12.3817C2.00878 12.3112 2.02264 12.2414 2.0496 12.1764C2.07655 12.1113 2.11606 12.0521 2.16587 12.0023C2.21568 11.9525 2.27482 11.913 2.3399 11.886C2.40499 11.859 2.47475 11.8452 2.5452 11.8452H4.92666L20.0204 1.43849C20.1112 1.37581 20.2192 1.34272 20.3295 1.34377C20.4398 1.34483 20.5471 1.37996 20.6367 1.44437L35.677 11.8143C35.691 11.8239 35.7045 11.8342 35.7174 11.8452H38.1036C38.1741 11.8452 38.2438 11.859 38.3089 11.886C38.374 11.9129 38.4332 11.9525 38.483 12.0023C38.5328 12.0521 38.5724 12.1112 38.5993 12.1763C38.6263 12.2414 38.6402 12.3112 38.6402 12.3817V14.7346C38.6402 14.8051 38.6263 14.8749 38.5993 14.94C38.5724 15.0051 38.5328 15.0642 38.483 15.114C38.4332 15.1639 38.374 15.2034 38.3089 15.2303C38.2438 15.2573 38.1741 15.2712 38.1036 15.2711H33.9573V17.1244C33.9573 17.2667 33.9008 17.4032 33.8001 17.5038C33.6995 17.6044 33.5631 17.6609 33.4208 17.6609H33.2676L33.4053 24.9613L33.4054 24.9615ZM17.7734 33.0498C17.7734 27.8953 17.8736 22.7617 17.9531 17.6051H17.8173C17.7469 17.6051 17.6771 17.5912 17.612 17.5642C17.5469 17.5373 17.4877 17.4977 17.4379 17.4479C17.3881 17.3981 17.3486 17.3389 17.3216 17.2738C17.2946 17.2087 17.2808 17.139 17.2808 17.0685V15.2154H12.7784V17.0688C12.7784 17.2111 12.7219 17.3476 12.6213 17.4482C12.5206 17.5488 12.3842 17.6054 12.2419 17.6054H12.1059L12.3384 33.0501H13.2287C13.371 33.0501 13.5074 33.1067 13.608 33.2073C13.7087 33.3079 13.7652 33.4443 13.7652 33.5866V35.1942H16.2938V33.5863C16.2938 33.5158 16.3076 33.4461 16.3346 33.381C16.3615 33.3159 16.401 33.2568 16.4509 33.2069C16.5007 33.1571 16.5598 33.1176 16.6249 33.0906C16.69 33.0637 16.7597 33.0498 16.8302 33.0498H17.7734ZM22.8053 24.9057H28.5119L28.5464 17.6054H28.4068C28.2645 17.6054 28.1281 17.5488 28.0275 17.4482C27.9268 17.3476 27.8703 17.2111 27.8703 17.0688V15.2154H23.3679V17.0688C23.3679 17.2111 23.3114 17.3476 23.2108 17.4482C23.1101 17.5488 22.9737 17.6054 22.8314 17.6054H22.6954L22.8053 24.9057Z" fill="#1664B2"/>
<path fill-rule="evenodd" clip-rule="evenodd" d="M37.5478 29.1306C37.5469 28.9496 37.4746 28.7763 37.3466 28.6483C37.2186 28.5203 37.0453 28.448 36.8643 28.4471H19.5292C19.3482 28.4481 19.1749 28.5204 19.0469 28.6483C18.919 28.7763 18.8467 28.9496 18.8457 29.1306V39.844C18.8466 40.025 18.9189 40.1983 19.0469 40.3263C19.1749 40.4542 19.3482 40.5266 19.5292 40.5275H36.8643C37.0453 40.5266 37.2186 40.4543 37.3466 40.3263C37.4746 40.1983 37.5469 40.025 37.5478 39.844V29.1306ZM27.3993 38.4397C27.2571 38.4397 27.1206 38.3831 27.02 38.2825C26.9194 38.1819 26.8629 38.0455 26.8629 37.9032C26.8629 37.7609 26.9194 37.6244 27.02 37.5238C27.1206 37.4232 27.2571 37.3667 27.3993 37.3667H28.994C29.1363 37.3667 29.2728 37.4232 29.3734 37.5238C29.474 37.6244 29.5305 37.7609 29.5305 37.9032C29.5305 38.0455 29.474 38.1819 29.3734 38.2825C29.2728 38.3831 29.1363 38.4397 28.994 38.4397H27.3993ZM30.7765 38.4397C30.6342 38.4397 30.4978 38.3831 30.3972 38.2825C30.2966 38.1819 30.24 38.0455 30.24 37.9032C30.24 37.7609 30.2966 37.6244 30.3972 37.5238C30.4978 37.4232 30.6342 37.3667 30.7765 37.3667H32.3713C32.5136 37.3667 32.65 37.4232 32.7507 37.5238C32.8513 37.6244 32.9078 37.7609 32.9078 37.9032C32.9078 38.0455 32.8513 38.1819 32.7507 38.2825C32.65 38.3831 32.5136 38.4397 32.3713 38.4397H30.7765ZM34.1537 38.4397C34.0114 38.4397 33.875 38.3831 33.7743 38.2825C33.6737 38.1819 33.6172 38.0455 33.6172 37.9032C33.6172 37.7609 33.6737 37.6244 33.7743 37.5238C33.875 37.4232 34.0114 37.3667 34.1537 37.3667H35.7484C35.8907 37.3667 36.0271 37.4232 36.1278 37.5238C36.2284 37.6244 36.2849 37.7609 36.2849 37.9032C36.2849 38.0455 36.2284 38.1819 36.1278 38.2825C36.0271 38.3831 35.8907 38.4397 35.7484 38.4397H34.1537ZM24.0222 38.4397C23.8799 38.4397 23.7434 38.3831 23.6428 38.2825C23.5422 38.1819 23.4857 38.0455 23.4857 37.9032C23.4857 37.7609 23.5422 37.6244 23.6428 37.5238C23.7434 37.4232 23.8799 37.3667 24.0222 37.3667H25.6169C25.7592 37.3667 25.8957 37.4232 25.9963 37.5238C26.0969 37.6244 26.1534 37.7609 26.1534 37.9032C26.1534 38.0455 26.0969 38.1819 25.9963 38.2825C25.8957 38.3831 25.7592 38.4397 25.6169 38.4397H24.0222ZM20.6451 38.4397C20.5028 38.4397 20.3663 38.3831 20.2657 38.2825C20.1651 38.1819 20.1086 38.0455 20.1086 37.9032C20.1086 37.7609 20.1651 37.6244 20.2657 37.5238C20.3663 37.4232 20.5028 37.3667 20.6451 37.3667H22.2399C22.3822 37.3667 22.5187 37.4232 22.6193 37.5238C22.7199 37.6244 22.7764 37.7609 22.7764 37.9032C22.7764 38.0455 22.7199 38.1819 22.6193 38.2825C22.5187 38.3831 22.3822 38.4397 22.2399 38.4397H20.6451ZM26.0138 32.4377C25.9427 32.4386 25.8723 32.4254 25.8064 32.3988C25.7405 32.3723 25.6806 32.3329 25.63 32.283C25.5795 32.2331 25.5394 32.1736 25.512 32.1081C25.4846 32.0425 25.4705 31.9722 25.4705 31.9012C25.4705 31.8302 25.4846 31.7598 25.512 31.6943C25.5394 31.6288 25.5795 31.5693 25.63 31.5194C25.6806 31.4695 25.7405 31.4301 25.8064 31.4035C25.8723 31.377 25.9427 31.3638 26.0138 31.3646H34.7069C34.848 31.3664 34.9828 31.4237 35.082 31.5241C35.1812 31.6246 35.2368 31.76 35.2368 31.9012C35.2368 32.0423 35.1812 32.1778 35.082 32.2782C34.9828 32.3786 34.848 32.4359 34.7069 32.4377H26.0138ZM20.628 30.176H23.2913C23.4336 30.176 23.5701 30.2325 23.6707 30.3331C23.7713 30.4338 23.8279 30.5702 23.8279 30.7125V33.3759C23.8279 33.4464 23.814 33.5161 23.7871 33.5812C23.7601 33.6463 23.7206 33.7055 23.6707 33.7553C23.6209 33.8051 23.5618 33.8446 23.4967 33.8716C23.4316 33.8985 23.3618 33.9124 23.2913 33.9124H20.628C20.5576 33.9124 20.4878 33.8985 20.4227 33.8716C20.3576 33.8446 20.2985 33.8051 20.2486 33.7553C20.1988 33.7055 20.1593 33.6463 20.1323 33.5812C20.1054 33.5161 20.0915 33.4464 20.0915 33.3759V30.7125C20.0915 30.5702 20.1481 30.4338 20.2487 30.3332C20.3493 30.2326 20.4857 30.176 20.628 30.176Z" fill="white"/>
<path fill-rule="evenodd" clip-rule="evenodd" d="M8.2002 33.0498H11.2693L11.0369 17.6054H8.43266L8.2002 33.0498Z" fill="#689FF2"/>
<path d="M6.77734 34.1228H12.6923V35.1937H6.77734V34.1228Z" fill="#689FF2"/>
<path fill-rule="evenodd" clip-rule="evenodd" d="M6.81055 11.7894H33.837L20.3238 2.4725L6.81055 11.7894Z" fill="#689FF2"/>
<path d="M7.76367 15.2154H11.7047V16.5323H7.76367V15.2154Z" fill="#689FF2"/>
<path d="M18.3535 15.2154H22.2946V16.5323H18.3535V15.2154Z" fill="#689FF2"/>
<path d="M28.9434 15.2154H32.8844V16.5323H28.9434V15.2154Z" fill="#689FF2"/>
<path fill-rule="evenodd" clip-rule="evenodd" d="M3.08105 14.1425H37.5669V12.8625H3.08105V14.1425Z" fill="#689FF2"/>
<path d="M17.3662 34.1228H17.7728V35.1937H17.3662V34.1228Z" fill="#689FF2"/>
<path fill-rule="evenodd" clip-rule="evenodd" d="M17.7727 37.3389V36.2669H13.228H6.24003H3.9082V37.3389H17.7727Z" fill="#689FF2"/>
<path d="M21.165 31.2491H22.7554V32.8394H21.165V31.2491Z" fill="#689FF2"/>
<path fill-rule="evenodd" clip-rule="evenodd" d="M38.6211 38.0591H39.2358C39.4168 38.0582 39.5901 37.9859 39.7181 37.8579C39.846 37.73 39.9183 37.5566 39.9192 37.3757V31.4716H38.6211V38.0591Z" fill="white"/>
<path fill-rule="evenodd" clip-rule="evenodd" d="M29.5801 24.9057H32.3357L32.1978 17.6054H29.6146L29.5801 24.9057Z" fill="#689FF2"/>
<path fill-rule="evenodd" clip-rule="evenodd" d="M20.144 27.374V26.6622C20.1451 26.2251 20.3086 25.804 20.6028 25.4808C20.8971 25.1576 21.301 24.9554 21.736 24.9134L21.626 17.6054H19.0217L18.8691 27.5034C19.0787 27.4178 19.303 27.3738 19.5294 27.374H20.144Z" fill="#689FF2"/>
<path d="M38.6211 29.4061H39.9192V30.3985H38.6211V29.4061Z" fill="#689FF2"/>
<path fill-rule="evenodd" clip-rule="evenodd" d="M38.4286 28.3331H39.9189V26.6619C39.918 26.4809 39.8457 26.3076 39.7178 26.1796C39.5898 26.0516 39.4165 25.9793 39.2355 25.9784H21.9004C21.7194 25.9793 21.5461 26.0516 21.4181 26.1796C21.2901 26.3075 21.2177 26.4809 21.2168 26.6619V27.3737H36.8643C37.0949 27.3737 37.3233 27.4192 37.5362 27.5077C37.7492 27.5962 37.9426 27.7258 38.1053 27.8892C38.2355 28.0195 38.3446 28.1693 38.4286 28.3331Z" fill="white"/>
</svg>
