<svg width="16" height="17" viewBox="0 0 16 17" fill="none" xmlns="http://www.w3.org/2000/svg">
<rect y="0.5" width="16" height="16" rx="8" fill="#D72828" fill-opacity="0.15"/>
<path d="M5.28274 11.217C5.38389 11.3182 5.52108 11.375 5.66412 11.375C5.80717 11.375 5.94435 11.3182 6.0455 11.217L7.99488 9.26765L9.94494 11.217C10.0464 11.3168 10.1831 11.3725 10.3254 11.3719C10.4677 11.3713 10.604 11.3146 10.7046 11.2139C10.8052 11.1133 10.862 10.977 10.8626 10.8347C10.8632 10.6925 10.8075 10.5557 10.7077 10.4543L8.75764 8.50489L10.7072 6.55551C10.7595 6.50594 10.8012 6.44642 10.8301 6.38046C10.8589 6.31449 10.8742 6.24342 10.8752 6.17144C10.8761 6.09945 10.8626 6.028 10.8355 5.9613C10.8084 5.89461 10.7683 5.83401 10.7174 5.78309C10.6665 5.73217 10.6059 5.69195 10.5392 5.66481C10.4725 5.63766 10.4011 5.62414 10.3291 5.62504C10.2571 5.62594 10.186 5.64125 10.1201 5.67005C10.0541 5.69885 9.99454 5.74057 9.94494 5.79275L7.99533 7.74213L6.04595 5.79275C5.94452 5.69296 5.80777 5.63729 5.66548 5.63787C5.52319 5.63845 5.3869 5.69523 5.28628 5.79585C5.18567 5.89646 5.12889 6.03275 5.12831 6.17504C5.12773 6.31733 5.1834 6.45408 5.28319 6.55551L7.23257 8.50489L5.28319 10.4543C5.18199 10.5554 5.12508 10.6925 5.125 10.8356C5.12492 10.9786 5.18166 11.1158 5.28274 11.217Z" fill="#D72828"/>
</svg>
