<svg width="43" height="34" viewBox="0 0 43 34" fill="none" xmlns="http://www.w3.org/2000/svg">
<path fill-rule="evenodd" clip-rule="evenodd" d="M38.9634 33.4048H4.03826C1.81275 33.4048 0.00195312 31.594 0.00195312 29.3685V9.84612C0.00195312 7.6206 1.8125 5.80981 4.03826 5.80981H17.9582V1.87177C17.9582 0.839763 18.7975 0 19.83 0H23.1717C24.2037 0 25.0434 0.839259 25.0434 1.87177V5.80981H38.9634C41.1889 5.80981 42.9997 7.6206 42.9997 9.84612V29.3685C42.9997 31.5943 41.1891 33.4048 38.9634 33.4048ZM22.3974 4.69214H20.6047C19.9414 4.69214 19.9414 3.68433 20.6047 3.68433H22.3974C23.0608 3.68433 23.0603 4.69214 22.3974 4.69214ZM18.966 6.35453C19.0036 6.6536 18.966 7.03154 18.966 7.36915H24.0354V1.87202C24.0354 1.39583 23.6484 1.00807 23.1717 1.00807H19.83C19.3538 1.00807 18.966 1.39532 18.966 1.87202V6.35453ZM18.085 8.2069C17.8521 7.94411 17.9582 7.16331 17.9582 6.81763H4.03826C2.36831 6.81763 1.00977 8.17641 1.00977 9.84612V29.3685C1.00977 31.0382 2.36805 32.3968 4.03826 32.3968H38.9634C40.6331 32.3968 41.9916 31.0385 41.9916 29.3685V9.84612C41.9916 8.17616 40.6333 6.81763 38.9634 6.81763H25.0434C25.0434 7.42282 25.2372 8.37042 24.5395 8.37697L18.4463 8.37672C18.2757 8.37294 18.1613 8.3102 18.0852 8.2069H18.085ZM39.4665 27.9735H24.7295C24.0661 27.9735 24.0663 26.9656 24.7295 26.9656H39.4665C40.1297 26.9656 40.1297 27.9735 39.4665 27.9735ZM39.4665 22.7318H24.7295C24.0661 22.7318 24.0663 21.724 24.7295 21.724H39.4665C40.1297 21.724 40.1297 22.7318 39.4665 22.7318ZM39.4665 17.4907H24.7295C24.0663 17.4907 24.0663 16.4828 24.7295 16.4828H39.4665C40.1299 16.4828 40.1297 17.4907 39.4665 17.4907ZM39.4665 12.2485H24.7295C24.0661 12.2485 24.0663 11.2407 24.7295 11.2407H39.4665C40.1299 11.2407 40.1299 12.2485 39.4665 12.2485ZM20.8562 28.4864H3.53536C3.2572 28.4864 3.03145 28.2604 3.03145 27.9825V11.2321C3.03145 10.954 3.2572 10.7282 3.53536 10.7282H20.8562C21.1344 10.7282 21.3601 10.954 21.3601 11.2321V27.9825C21.3601 28.2604 21.1349 28.4864 20.8562 28.4864ZM4.03927 27.4784H6.16072V24.3519C6.16072 23.0853 7.19121 22.0543 8.45779 22.0543H15.9325C17.1993 22.0543 18.2298 23.0853 18.2298 24.3519V27.4784H20.3528V11.7355H4.03952V27.4784H4.03927ZM7.16854 27.4784H8.08993V24.8412C8.08993 24.1778 9.09775 24.178 9.09775 24.8412V27.4784H15.2938V24.8412C15.2938 24.1778 16.3016 24.178 16.3016 24.8412V27.4784H17.2225V24.3519C17.2225 23.6409 16.644 23.0621 15.933 23.0621H8.45854C7.74753 23.0621 7.16879 23.6406 7.16879 24.3519V27.4784H7.16854ZM12.1958 21.4436C10.3056 21.4436 8.76794 19.9054 8.76794 18.0155C8.76794 17.7217 8.7362 17.3871 8.76593 17.1115C8.63844 16.765 8.58905 16.2563 8.47945 15.7345C8.20482 14.4307 9.47719 13.3334 10.7654 13.3334H13.6246C14.9151 13.3334 16.1852 14.4327 15.9111 15.7348C15.8017 16.2546 15.7526 16.7633 15.6261 17.1102C15.6559 17.3861 15.6241 17.7212 15.6241 18.0152C15.6239 19.9051 14.0859 21.4433 12.196 21.4433L12.1958 21.4436ZM9.77928 17.1248C9.8065 17.3979 9.77576 17.7267 9.77576 18.0155C9.77576 19.3498 10.8614 20.4355 12.196 20.4355C13.5304 20.4355 14.616 19.3498 14.616 18.0155C14.616 17.1656 14.6627 17.2732 14.3583 16.8116C13.7428 17.0757 13.2573 17.3715 12.4543 16.1961C10.908 16.9482 11.7178 16.6164 10.2441 16.6164C9.93751 16.6164 9.87024 16.8777 9.77903 17.1246L9.77928 17.1248ZM12.6498 15.0364C13.1769 15.0364 13.1754 15.726 13.6445 16.0213C14.1381 15.8099 14.547 15.5267 14.8695 15.7945C14.9489 15.4181 15.0124 15.2004 14.739 14.863C14.4855 14.5509 14.0381 14.341 13.6256 14.341H10.7664C10.1298 14.341 9.3293 14.8766 9.46661 15.5269L9.52128 15.7864C10.0635 15.4602 11.0554 15.7071 11.2368 15.6675C11.3941 15.633 12.3784 15.0366 12.6501 15.0366L12.6498 15.0364Z" fill="url(#paint0_linear_158_32178)"/>
<defs>
<linearGradient id="paint0_linear_158_32178" x1="4.2305" y1="16.7025" x2="38.7714" y2="16.7025" gradientUnits="userSpaceOnUse">
<stop stop-color="#FFB800"/>
<stop offset="1" stop-color="#FF5329"/>
</linearGradient>
</defs>
</svg>
