<svg width="16" height="16" viewBox="0 0 16 16" fill="none" xmlns="http://www.w3.org/2000/svg">
<rect width="16" height="16" rx="8" fill="#F4D800" fill-opacity="0.15"/>
<path d="M7.99985 3.00049C7.8305 3.00049 7.66809 3.06776 7.54835 3.18751C7.4286 3.30725 7.36133 3.46966 7.36133 3.63901V5.31361C7.36133 5.48296 7.4286 5.64537 7.54835 5.76512C7.66809 5.88486 7.8305 5.95213 7.99985 5.95213C8.16919 5.95213 8.3316 5.88486 8.45135 5.76512C8.57109 5.64537 8.63837 5.48296 8.63837 5.31361V3.63901C8.63837 3.46966 8.57109 3.30725 8.45135 3.18751C8.3316 3.06776 8.16919 3.00049 7.99985 3.00049Z" fill="#F4D800"/>
<path d="M5.95164 7.99936C5.95164 7.83001 5.88437 7.6676 5.76463 7.54786C5.64488 7.42811 5.48247 7.36084 5.31313 7.36084H3.63852C3.46917 7.36084 3.30676 7.42811 3.18702 7.54786C3.06727 7.6676 3 7.83001 3 7.99936C3 8.1687 3.06727 8.33111 3.18702 8.45086C3.30676 8.57061 3.46917 8.63788 3.63852 8.63788H5.31313C5.48247 8.63788 5.64488 8.57061 5.76463 8.45086C5.88437 8.33111 5.95164 8.1687 5.95164 7.99936Z" fill="#F4D800"/>
<path d="M5.64875 9.44836L4.46448 10.6326C4.40515 10.692 4.35809 10.7624 4.32598 10.8399C4.29387 10.9174 4.27734 11.0005 4.27734 11.0844C4.27734 11.1683 4.29387 11.2514 4.32598 11.3289C4.35809 11.4064 4.40515 11.4769 4.46448 11.5362C4.5843 11.656 4.74681 11.7233 4.91626 11.7233C5.00016 11.7233 5.08325 11.7068 5.16076 11.6747C5.23828 11.6426 5.30871 11.5955 5.36804 11.5362L6.55231 10.3519C6.61164 10.2926 6.65871 10.2222 6.69081 10.1446C6.72292 10.0671 6.73945 9.98405 6.73945 9.90015C6.73945 9.81624 6.72292 9.73316 6.69081 9.65564C6.65871 9.57813 6.61164 9.50769 6.55231 9.44836C6.49299 9.38904 6.42255 9.34197 6.34504 9.30987C6.26752 9.27776 6.18444 9.26123 6.10053 9.26123C6.01663 9.26123 5.93355 9.27776 5.85603 9.30987C5.77851 9.34197 5.70808 9.38904 5.64875 9.44836Z" fill="#F4D800"/>
<path d="M7.99985 10.0483C7.8305 10.0483 7.66809 10.1156 7.54835 10.2354C7.4286 10.3551 7.36133 10.5175 7.36133 10.6869V12.3615C7.36133 12.5308 7.4286 12.6932 7.54835 12.813C7.66809 12.9327 7.8305 13 7.99985 13C8.16919 13 8.3316 12.9327 8.45135 12.813C8.57109 12.6932 8.63837 12.5308 8.63837 12.3615V10.6869C8.63837 10.5175 8.57109 10.3551 8.45135 10.2354C8.3316 10.1156 8.16919 10.0483 7.99985 10.0483Z" fill="#F4D800"/>
<path d="M10.3505 9.44836C10.2306 9.32854 10.0681 9.26123 9.89868 9.26123C9.72923 9.26123 9.56672 9.32854 9.4469 9.44836C9.32708 9.56818 9.25977 9.7307 9.25977 9.90015C9.25977 10.0696 9.32708 10.2321 9.4469 10.3519L10.6312 11.5362C10.751 11.656 10.9135 11.7233 11.083 11.7233C11.2524 11.7233 11.4149 11.656 11.5347 11.5362C11.6546 11.4164 11.7219 11.2539 11.7219 11.0844C11.7219 10.915 11.6546 10.7525 11.5347 10.6326L10.3505 9.44836Z" fill="#F4D800"/>
<path d="M12.362 7.36084H10.6873C10.518 7.36084 10.3556 7.42811 10.2358 7.54786C10.1161 7.6676 10.0488 7.83001 10.0488 7.99936C10.0488 8.1687 10.1161 8.33111 10.2358 8.45086C10.3556 8.57061 10.518 8.63788 10.6873 8.63788H12.362C12.5313 8.63788 12.6937 8.57061 12.8135 8.45086C12.9332 8.33111 13.0005 8.1687 13.0005 7.99936C13.0005 7.83001 12.9332 7.6676 12.8135 7.54786C12.6937 7.42811 12.5313 7.36084 12.362 7.36084Z" fill="#F4D800"/>
<path d="M9.89855 6.73935C9.98247 6.73952 10.0656 6.72308 10.1431 6.69098C10.2207 6.65888 10.2911 6.61175 10.3503 6.55231L11.5346 5.36804C11.6544 5.24822 11.7217 5.08571 11.7217 4.91626C11.7217 4.74681 11.6544 4.5843 11.5346 4.46448C11.4148 4.34466 11.2523 4.27734 11.0828 4.27734C10.9134 4.27734 10.7509 4.34466 10.631 4.46448L9.44676 5.64875C9.35746 5.73807 9.29664 5.85186 9.27202 5.97575C9.24739 6.09963 9.26006 6.22803 9.30843 6.34472C9.35679 6.4614 9.43867 6.56111 9.54371 6.63125C9.64875 6.70139 9.77224 6.7388 9.89855 6.73875V6.73935Z" fill="#F4D800"/>
</svg>
