<svg width="40" height="40" viewBox="0 0 40 40" fill="none" xmlns="http://www.w3.org/2000/svg">
<g clip-path="url(#clip0_150_23712)">
<mask id="mask0_150_23712" style="mask-type:luminance" maskUnits="userSpaceOnUse" x="0" y="0" width="40" height="40">
<path d="M0 0H40V40H0V0Z" fill="white"/>
</mask>
<g mask="url(#mask0_150_23712)">
<path fill-rule="evenodd" clip-rule="evenodd" d="M26.1244 13.9998C26.1244 10.6909 23.3779 7.99991 20 7.99991C16.6221 7.99991 13.8756 10.6909 13.8756 13.9998C13.8756 17.3087 16.6221 19.9997 20 19.9997C23.3779 19.9997 26.1244 17.3087 26.1244 13.9998ZM31.9188 34.9994H29.1873C28.3413 34.9994 27.6559 34.3274 27.6559 33.4994C27.6559 32.6714 28.3413 31.9995 29.1873 31.9995H29.8443C30.9033 31.9995 31.6863 30.954 31.2858 29.9925C29.4303 25.5466 25.0759 22.9996 20 22.9996C14.9241 22.9996 10.5697 25.5466 8.71571 29.9925C8.31372 30.954 9.09671 31.9995 10.1557 31.9995H10.8127C11.6572 31.9995 12.3441 32.6714 12.3441 33.4994C12.3441 34.3274 11.6587 34.9994 10.8127 34.9994H8.08123C6.16726 34.9994 4.66129 33.2849 5.06628 31.4535C6.18076 26.4151 9.6607 22.6966 14.2461 21.0092C12.1551 19.3607 10.8127 16.8347 10.8127 13.9998C10.8127 8.6734 15.5346 4.42848 21.101 5.06296C25.1344 5.52196 28.4748 8.6704 29.0793 12.6048C29.5998 15.9963 28.1838 19.0937 25.7539 21.0092C30.3378 22.6966 33.8192 26.4151 34.9337 31.4535C35.3387 33.2849 33.8327 34.9994 31.9188 34.9994Z" fill="white"/>
</g>
</g>
<defs>
<clipPath id="clip0_150_23712">
<rect width="40" height="40" rx="6" fill="white"/>
</clipPath>
</defs>
</svg>
