<svg width="60" height="60" viewBox="0 0 60 60" fill="none" xmlns="http://www.w3.org/2000/svg">
<rect width="60" height="60" rx="30" fill="url(#paint0_linear_205_7775)"/>
<path d="M42.5748 26.0691V32.8414C41.8624 32.4352 41.0368 32.2729 40.2236 32.3792C39.4105 32.4855 38.6543 32.8547 38.0703 33.4304L33.6598 37.456C33.1125 37.9546 32.6752 38.562 32.3758 39.2392C32.0764 39.9164 31.9215 40.6486 31.9211 41.389V47.2972C31.9211 47.467 31.9885 47.6299 32.1086 47.75C32.2286 47.87 32.3915 47.9375 32.5613 47.9375H40.6141C40.7839 47.9375 40.9467 47.87 41.0668 47.75C41.1869 47.6299 41.2543 47.4671 41.2543 47.2973V46.2684C41.2537 45.619 41.4642 44.987 41.8542 44.4677L46.6414 38.0887C47.1976 37.3484 47.4979 36.4472 47.4967 35.5212V26.0692C47.4079 22.8137 42.6576 22.8358 42.5748 26.0691ZM46.2162 35.5212C46.2168 36.1706 46.0061 36.8027 45.616 37.3219L40.8289 43.7009C40.2015 44.5533 39.8984 45.6013 39.9738 46.657H33.2015V41.389C33.2019 40.8268 33.3195 40.2707 33.547 39.7565C33.7744 39.2423 34.1066 38.7811 34.5223 38.4026L38.9565 34.3541C39.4234 33.8904 40.0552 33.6309 40.7132 33.6323C41.3712 33.6338 42.0018 33.8962 42.4666 34.362C42.5365 34.433 42.5754 34.5289 42.5748 34.6286C42.5759 34.6812 42.5664 34.7334 42.5468 34.7822C42.5272 34.831 42.4979 34.8753 42.4607 34.9125L37.576 39.7971C37.4598 39.918 37.3956 40.0796 37.3972 40.2472C37.3989 40.4149 37.4662 40.5752 37.5847 40.6938C37.7033 40.8123 37.8636 40.8797 38.0313 40.8813C38.1989 40.8829 38.3605 40.8187 38.4814 40.7025L43.3664 35.8175C43.6787 35.5017 43.8543 35.0756 43.8553 34.6314V26.0691C43.8548 25.9133 43.8857 25.759 43.9462 25.6153C44.0067 25.4717 44.0955 25.3418 44.2073 25.2332C44.3735 25.0723 44.5833 24.9636 44.8106 24.9205C45.038 24.8774 45.2729 24.9018 45.4866 24.9906C45.7002 25.0795 45.8831 25.229 46.0128 25.4207C46.1425 25.6123 46.2132 25.8378 46.2162 26.0691V35.5212ZM21.9532 33.4526C21.3689 32.8703 20.61 32.4952 19.7925 32.3847C18.975 32.2742 18.1438 32.4343 17.4258 32.8405V26.0692C17.4191 25.421 17.1568 24.8016 16.696 24.3456C16.2353 23.8896 15.6132 23.6338 14.9649 23.6338C14.3166 23.6338 13.6946 23.8896 13.2338 24.3455C12.773 24.8015 12.5107 25.4209 12.5039 26.0691V35.5212C12.5029 36.4479 12.8035 37.3497 13.3605 38.0903L18.1451 44.4662C18.7909 45.2476 18.7726 46.3386 18.7463 47.2973C18.7463 47.4671 18.8138 47.6299 18.9338 47.75C19.0539 47.87 19.2168 47.9375 19.3866 47.9375H27.4393C27.6091 47.9375 27.772 47.87 27.8921 47.75C28.0121 47.6299 28.0796 47.4671 28.0796 47.2973V41.389C28.0791 40.6488 27.9244 39.9167 27.6251 39.2396C27.3259 38.5625 26.8888 37.9553 26.3417 37.4566L21.9532 33.4526ZM26.7991 46.657H20.0268C20.1022 45.6007 19.7987 44.552 19.1706 43.6993L14.3859 37.3234C13.9951 36.8039 13.7839 36.1713 13.7844 35.5212V26.0692C13.7893 25.7593 13.9157 25.4637 14.1366 25.2463C14.3574 25.0289 14.6549 24.907 14.9648 24.907C15.2748 24.907 15.5722 25.0288 15.7931 25.2462C16.014 25.4637 16.1405 25.7592 16.1453 26.0691C16.1504 26.0868 16.1383 34.6471 16.1453 34.6655C16.1529 35.0985 16.3283 35.5117 16.6346 35.8179L21.5192 40.7025C21.6401 40.8187 21.8016 40.8829 21.9693 40.8812C22.1369 40.8796 22.2972 40.8123 22.4158 40.6937C22.5343 40.5752 22.6016 40.4149 22.6033 40.2473C22.6049 40.0796 22.5408 39.918 22.4246 39.7972L17.5402 34.9128C16.9903 34.1997 18.7443 33.5682 19.2931 33.628C19.6238 33.6275 19.9513 33.6935 20.256 33.8221C20.5607 33.9507 20.8364 34.1392 21.0669 34.3764L25.4792 38.4032C25.8947 38.7818 26.2267 39.2429 26.454 39.757C26.6812 40.2711 26.7988 40.8269 26.7991 41.389V46.657ZM37.0174 14.9905C28.8471 7.13746 16.1785 16.4724 21.197 26.5918L20.6143 30.67C20.6005 30.7683 20.6096 30.8684 20.6411 30.9625C20.6725 31.0566 20.7254 31.1421 20.7956 31.2123C20.8657 31.2824 20.9512 31.3353 21.0453 31.3668C21.1394 31.3982 21.2395 31.4074 21.3378 31.3935L25.4162 30.8109C26.8257 31.5451 28.3919 31.9273 29.9811 31.925C38.7324 31.9772 43.2574 21.2147 37.0174 14.9905ZM25.5186 22.9679C25.2663 22.9644 25.0254 22.8616 24.8483 22.6819C24.6711 22.5022 24.5717 22.2599 24.5717 22.0076C24.5717 21.7552 24.6711 21.5129 24.8483 21.3332C25.0255 21.1535 25.2663 21.0508 25.5186 21.0472C25.771 21.0508 26.0118 21.1535 26.189 21.3333C26.3662 21.513 26.4655 21.7552 26.4655 22.0076C26.4655 22.26 26.3662 22.5022 26.189 22.6819C26.0118 22.8616 25.771 22.9644 25.5186 22.9679ZM30.0003 22.9679C29.748 22.9644 29.5072 22.8616 29.33 22.6819C29.1528 22.5022 29.0535 22.2599 29.0535 22.0076C29.0535 21.7552 29.1528 21.5129 29.33 21.3332C29.5072 21.1535 29.748 21.0508 30.0004 21.0472C30.2527 21.0508 30.4935 21.1535 30.6707 21.3333C30.8479 21.513 30.9472 21.7552 30.9472 22.0076C30.9472 22.26 30.8479 22.5022 30.6707 22.6819C30.4935 22.8616 30.2527 22.9644 30.0003 22.9679ZM34.482 22.9679C34.2297 22.9644 33.9889 22.8616 33.8117 22.6819C33.6345 22.5022 33.5352 22.2599 33.5352 22.0076C33.5352 21.7552 33.6345 21.5129 33.8117 21.3332C33.9889 21.1535 34.2297 21.0508 34.4821 21.0472C34.7344 21.0508 34.9752 21.1535 35.1524 21.3333C35.3296 21.513 35.4289 21.7552 35.4289 22.0076C35.4289 22.26 35.3296 22.5022 35.1524 22.6819C34.9752 22.8616 34.7344 22.9644 34.482 22.9679Z" fill="white"/>
<defs>
<linearGradient id="paint0_linear_205_7775" x1="30" y1="0" x2="30" y2="60" gradientUnits="userSpaceOnUse">
<stop stop-color="#58A9FF"/>
<stop offset="1" stop-color="#0044FF"/>
</linearGradient>
</defs>
</svg>
