<svg width="37" height="38" viewBox="0 0 37 38" fill="none" xmlns="http://www.w3.org/2000/svg">
<g clip-path="url(#clip0_1_3738)">
<path d="M0.385742 14.5293V24.2418C0.385742 24.6272 0.694076 25.0126 1.15658 25.0126H12.5649C12.642 24.7814 12.7191 24.5501 12.7962 24.3189C12.7962 24.2418 12.7962 24.2418 12.8732 24.1647C13.0274 23.8564 13.1045 23.548 13.2587 23.3168C13.3357 23.2397 13.3357 23.1626 13.4128 23.0855C13.4899 22.8543 13.6441 22.7001 13.7212 22.546C13.7982 22.4689 13.8753 22.3147 13.9524 22.2376C14.0295 22.0835 14.1837 21.9293 14.2607 21.7751C14.3378 21.698 14.4149 21.5439 14.492 21.4668C14.5691 21.3126 14.7232 21.1585 14.8003 21.0043C14.8774 20.9272 14.9545 20.773 15.1087 20.696L15.4941 20.3105L15.8024 20.0022L16.1878 19.6168C16.2649 19.5397 16.4191 19.4626 16.4962 19.3855C16.6503 19.3085 16.8045 19.1543 16.8816 19.0772C17.0357 19.0001 17.1128 18.923 17.267 18.846C17.4212 18.7689 17.5753 18.6918 17.7295 18.5376C17.8837 18.4605 17.9607 18.3835 18.1149 18.3064C18.2691 18.2293 18.4232 18.1522 18.5774 18.0751C18.7316 17.998 18.8087 17.921 18.9628 17.921C19.117 17.8439 19.2712 17.7668 19.4253 17.6897C19.5795 17.6126 19.6566 17.6126 19.8107 17.5355C19.9649 17.4585 20.1191 17.4585 20.3503 17.3814C20.5045 17.3043 20.5816 17.3043 20.7357 17.2272C20.8899 17.1501 21.1212 17.1501 21.2753 17.073C21.4295 17.073 21.5066 16.996 21.6607 16.996C21.892 16.996 22.1232 16.9189 22.2774 16.9189C22.3545 16.9189 22.5087 16.9189 22.5857 16.8418C22.8941 16.8418 23.2024 16.7647 23.5878 16.7647C23.8962 16.7647 24.2816 16.7647 24.5899 16.8418C24.667 16.8418 24.8212 16.8418 24.8982 16.9189C25.1295 16.9189 25.3607 16.996 25.5149 16.996C25.6691 16.996 25.7462 17.073 25.9003 17.073C26.0545 17.1501 26.2857 17.1501 26.4399 17.2272C26.5941 17.2272 26.6712 17.3043 26.8253 17.3814C26.9795 17.4585 27.2107 17.4585 27.3649 17.5355C27.5191 17.6126 27.5962 17.6126 27.7503 17.6897L28.2128 17.921C28.367 17.998 28.4441 18.0751 28.5982 18.0751L29.0607 18.3064C29.2149 18.3835 29.292 18.4605 29.4462 18.5376C29.6003 18.6147 29.7545 18.6918 29.9087 18.846C30.0628 18.923 30.1399 19.0001 30.2941 19.0772C30.4482 19.1543 30.6024 19.3085 30.6795 19.3855C30.7566 19.4626 30.9107 19.5397 30.9878 19.6168C31.142 19.6939 31.2191 19.848 31.3732 20.0022C31.4503 20.0793 31.6045 20.1564 31.6816 20.3105C31.8357 20.4647 31.9128 20.5418 32.067 20.696C32.1441 20.773 32.2212 20.9272 32.3753 21.0043C32.5295 21.1585 32.6066 21.3126 32.6837 21.4668C32.7607 21.5439 32.8378 21.698 32.9149 21.7751C32.992 21.9293 33.1462 22.0835 33.2232 22.2376C33.3003 22.3147 33.3774 22.4689 33.4545 22.546C33.6087 22.7772 33.6857 22.9314 33.7628 23.1626C33.8399 23.2397 33.8399 23.3168 33.917 23.3939C34.0712 23.7022 34.2253 24.0105 34.3024 24.3189V24.396C34.3795 24.7043 34.5337 24.9355 34.6107 25.2439H35.8441C36.2295 25.2439 36.6149 24.9355 36.6149 24.473V14.5293H0.385742Z" fill="white"/>
<path d="M32.2977 26.5546C31.9122 24.7046 31.0643 23.1629 29.7539 21.9296C29.5227 21.6983 29.2143 21.4671 28.906 21.2358C28.7518 21.0816 28.5206 20.9275 28.3664 20.8504C28.1352 20.6962 27.9039 20.5421 27.6727 20.465C27.3643 20.3108 26.9789 20.1566 26.5935 20.0025C25.6685 19.6171 24.5893 19.4629 23.5872 19.4629C19.3477 19.4629 15.7247 22.4691 14.8768 26.6316C14.7997 27.1712 14.7227 27.7879 14.7227 28.3275C14.7227 33.1837 18.731 37.1921 23.5872 37.1921C28.4435 37.1921 32.4518 33.1837 32.4518 28.3275C32.4518 27.6337 32.3747 27.0941 32.2977 26.5546ZM29.1372 29.5608H24.8977V33.8004H22.2768V29.5608H18.0372V26.94H22.2768V22.7004H24.8977V26.94H29.1372V29.5608Z" fill="white"/>
<path d="M35.8441 0.885742H1.15658C0.771159 0.885742 0.385742 1.19408 0.385742 1.65658V4.73991H36.6149V1.65658C36.6149 1.19408 36.3066 0.885742 35.8441 0.885742Z" fill="white"/>
<path d="M0.385742 7.36035H36.6149V11.9083H0.385742V7.36035Z" fill="white"/>
</g>
<defs>
<clipPath id="clip0_1_3738">
<rect y="0.5" width="37" height="37" rx="6" fill="white"/>
</clipPath>
</defs>
</svg>
