<svg width="20" height="21" viewBox="0 0 20 21" fill="none" xmlns="http://www.w3.org/2000/svg">
<path fill-rule="evenodd" clip-rule="evenodd" d="M15.5377 12.11H18.2496C18.4661 12.1104 18.6737 12.1967 18.8268 12.3498C18.9799 12.5029 19.0661 12.7104 19.0666 12.9269V17.9102C19.0661 18.1267 18.9799 18.3342 18.8268 18.4873C18.6737 18.6405 18.4661 18.7267 18.2496 18.7271H17.9637V19.0582C17.9632 19.2747 17.877 19.4822 17.7239 19.6353C17.5708 19.7883 17.3633 19.8745 17.1468 19.875H9.08391C8.86738 19.8745 8.65985 19.7883 8.50674 19.6352C8.35364 19.4821 8.26742 19.2745 8.26695 19.058V18.392H1.56879C1.50261 18.3919 1.43915 18.3657 1.39236 18.3189C1.34556 18.2721 1.31927 18.2086 1.31926 18.1424V17.1445C1.31927 17.0784 1.34556 17.0149 1.39236 16.9681C1.43915 16.9213 1.50261 16.895 1.56879 16.895H2.65344V16.1473C2.65343 16.1146 2.65988 16.0821 2.67242 16.0519C2.68495 16.0216 2.70333 15.9941 2.7265 15.9709C2.74966 15.9477 2.77717 15.9293 2.80744 15.9168C2.83771 15.9042 2.87016 15.8978 2.90293 15.8978H3.31699L3.42512 8.71419H3.36203C3.29585 8.71419 3.23237 8.6879 3.18557 8.6411C3.13877 8.59431 3.11247 8.53084 3.11246 8.46465V7.60286H1.18406C1.1513 7.60286 1.11885 7.5964 1.08858 7.58386C1.0583 7.57132 1.0308 7.55294 1.00763 7.52977C0.984463 7.5066 0.966086 7.47909 0.953551 7.44881C0.941015 7.41854 0.934565 7.38609 0.93457 7.35333V6.25891C0.934565 6.22614 0.941015 6.1937 0.953551 6.16342C0.966086 6.13315 0.984463 6.10564 1.00763 6.08247C1.0308 6.0593 1.0583 6.04092 1.08858 6.02838C1.11885 6.01583 1.1513 6.00938 1.18406 6.00938H2.29172L9.31207 1.16907C9.3543 1.13991 9.40451 1.12452 9.45582 1.12501C9.50714 1.1255 9.55705 1.14184 9.59871 1.1718L16.5942 5.99504C16.6007 5.99951 16.607 6.00429 16.613 6.00938H17.7229C17.7556 6.00937 17.7881 6.01583 17.8184 6.02836C17.8486 6.0409 17.8761 6.05928 17.8993 6.08245C17.9225 6.10562 17.9409 6.13313 17.9534 6.16341C17.966 6.19369 17.9724 6.22614 17.9724 6.25891V7.35333C17.9724 7.3861 17.966 7.41855 17.9534 7.44883C17.9409 7.4791 17.9225 7.50661 17.8993 7.52979C17.8761 7.55296 17.8486 7.57134 17.8184 7.58387C17.7881 7.59641 17.7556 7.60286 17.7229 7.60286H15.7943V8.46485C15.7943 8.53103 15.768 8.5945 15.7213 8.64129C15.6745 8.68809 15.611 8.71438 15.5448 8.71438H15.4736L15.5376 12.1099L15.5377 12.11ZM8.26695 15.872C8.26695 13.4746 8.31355 11.0868 8.35051 8.6884H8.28738C8.25461 8.6884 8.22216 8.68195 8.19188 8.66941C8.1616 8.65686 8.13408 8.63848 8.11091 8.61531C8.08774 8.59213 8.06935 8.56462 8.05681 8.53434C8.04427 8.50406 8.03781 8.47161 8.03781 8.43883V7.57692H5.94371V8.43899C5.9437 8.50518 5.9174 8.56865 5.8706 8.61545C5.8238 8.66225 5.76033 8.68855 5.69414 8.68856H5.6309L5.73906 15.8722H6.15312C6.21931 15.8722 6.28277 15.8984 6.32957 15.9452C6.37637 15.992 6.40266 16.0555 6.40266 16.1217V16.8694H7.57875V16.1215C7.57874 16.0888 7.58519 16.0563 7.59773 16.026C7.61027 15.9958 7.62864 15.9683 7.65181 15.9451C7.67498 15.9219 7.70248 15.9035 7.73276 15.891C7.76303 15.8785 7.79548 15.872 7.82824 15.872H8.26695ZM10.6074 12.0841H13.2616L13.2777 8.68856H13.2127C13.1465 8.68855 13.0831 8.66225 13.0363 8.61545C12.9895 8.56865 12.9632 8.50518 12.9632 8.43899V7.57692H10.8691V8.43899C10.8691 8.50518 10.8428 8.56865 10.796 8.61545C10.7492 8.66225 10.6857 8.68855 10.6195 8.68856H10.5562L10.6074 12.0841Z" fill="#1664B2"/>
<path fill-rule="evenodd" clip-rule="evenodd" d="M17.4643 14.0493C17.4639 13.9652 17.4302 13.8845 17.3707 13.825C17.3112 13.7655 17.2305 13.7319 17.1464 13.7314H9.08352C8.99934 13.7319 8.91874 13.7655 8.85922 13.825C8.7997 13.8846 8.76607 13.9652 8.76562 14.0493V19.0323C8.76606 19.1165 8.79969 19.1971 8.85921 19.2566C8.91873 19.3162 8.99934 19.3498 9.08352 19.3502H17.1464C17.2306 19.3498 17.3112 19.3162 17.3707 19.2566C17.4302 19.1971 17.4639 19.1165 17.4643 19.0323V14.0493ZM12.7441 18.3791C12.6779 18.3791 12.6144 18.3529 12.5676 18.3061C12.5208 18.2593 12.4945 18.1958 12.4945 18.1296C12.4945 18.0634 12.5208 18 12.5676 17.9532C12.6144 17.9064 12.6779 17.8801 12.7441 17.8801H13.4858C13.552 17.8801 13.6154 17.9064 13.6622 17.9532C13.709 18 13.7353 18.0634 13.7353 18.1296C13.7353 18.1958 13.709 18.2593 13.6622 18.3061C13.6154 18.3529 13.552 18.3791 13.4858 18.3791H12.7441ZM14.3148 18.3791C14.2487 18.3791 14.1852 18.3529 14.1384 18.3061C14.0916 18.2593 14.0653 18.1958 14.0653 18.1296C14.0653 18.0634 14.0916 18 14.1384 17.9532C14.1852 17.9064 14.2487 17.8801 14.3148 17.8801H15.0566C15.1228 17.8801 15.1863 17.9064 15.233 17.9532C15.2798 18 15.3061 18.0634 15.3061 18.1296C15.3061 18.1958 15.2798 18.2593 15.233 18.3061C15.1863 18.3529 15.1228 18.3791 15.0566 18.3791H14.3148ZM15.8856 18.3791C15.8194 18.3791 15.756 18.3529 15.7092 18.3061C15.6624 18.2593 15.6361 18.1958 15.6361 18.1296C15.6361 18.0634 15.6624 18 15.7092 17.9532C15.756 17.9064 15.8194 17.8801 15.8856 17.8801H16.6273C16.6935 17.8801 16.757 17.9064 16.8038 17.9532C16.8506 18 16.8769 18.0634 16.8769 18.1296C16.8769 18.1958 16.8506 18.2593 16.8038 18.3061C16.757 18.3529 16.6935 18.3791 16.6273 18.3791H15.8856ZM11.1733 18.3791C11.1071 18.3791 11.0436 18.3529 10.9968 18.3061C10.95 18.2593 10.9237 18.1958 10.9237 18.1296C10.9237 18.0634 10.95 18 10.9968 17.9532C11.0436 17.9064 11.1071 17.8801 11.1733 17.8801H11.915C11.9812 17.8801 12.0447 17.9064 12.0915 17.9532C12.1383 18 12.1646 18.0634 12.1646 18.1296C12.1646 18.1958 12.1383 18.2593 12.0915 18.3061C12.0447 18.3529 11.9812 18.3791 11.915 18.3791H11.1733ZM9.60254 18.3791C9.53636 18.3791 9.47289 18.3529 9.42609 18.3061C9.3793 18.2593 9.35301 18.1958 9.35301 18.1296C9.35301 18.0634 9.3793 18 9.42609 17.9532C9.47289 17.9064 9.53636 17.8801 9.60254 17.8801H10.3443C10.4105 17.8801 10.474 17.9064 10.5208 17.9532C10.5676 18 10.5939 18.0634 10.5939 18.1296C10.5939 18.1958 10.5676 18.2593 10.5208 18.3061C10.474 18.3529 10.4105 18.3791 10.3443 18.3791H9.60254ZM12.0996 15.5875C12.0666 15.588 12.0338 15.5818 12.0031 15.5694C11.9725 15.5571 11.9446 15.5388 11.9211 15.5156C11.8976 15.4923 11.879 15.4647 11.8662 15.4342C11.8535 15.4037 11.8469 15.371 11.8469 15.338C11.8469 15.305 11.8535 15.2722 11.8662 15.2418C11.879 15.2113 11.8976 15.1836 11.9211 15.1604C11.9446 15.1372 11.9725 15.1189 12.0031 15.1065C12.0338 15.0942 12.0666 15.088 12.0996 15.0884H16.1429C16.2086 15.0893 16.2713 15.1159 16.3174 15.1626C16.3635 15.2093 16.3894 15.2723 16.3894 15.338C16.3894 15.4036 16.3635 15.4666 16.3174 15.5134C16.2713 15.5601 16.2086 15.5867 16.1429 15.5875H12.0996ZM9.59461 14.5356H10.8334C10.8995 14.5356 10.963 14.5619 11.0098 14.6087C11.0566 14.6555 11.0829 14.7189 11.0829 14.7851V16.0239C11.0829 16.0567 11.0765 16.0891 11.0639 16.1194C11.0514 16.1497 11.033 16.1772 11.0098 16.2004C10.9867 16.2235 10.9591 16.2419 10.9289 16.2545C10.8986 16.267 10.8661 16.2734 10.8334 16.2734H9.59461C9.56184 16.2734 9.52939 16.267 9.49911 16.2545C9.46884 16.2419 9.44132 16.2235 9.41815 16.2004C9.39498 16.1772 9.3766 16.1497 9.36406 16.1194C9.35152 16.0891 9.34507 16.0567 9.34508 16.0239V14.7851C9.34509 14.7189 9.37138 14.6555 9.41818 14.6087C9.46497 14.5619 9.52843 14.5356 9.59461 14.5356Z" fill="white"/>
<path fill-rule="evenodd" clip-rule="evenodd" d="M3.81348 15.8719H5.24098L5.13285 8.68848H3.9216L3.81348 15.8719Z" fill="#689FF2"/>
<path d="M3.15137 16.3711H5.9025V16.8692H3.15137V16.3711Z" fill="#689FF2"/>
<path fill-rule="evenodd" clip-rule="evenodd" d="M3.16699 5.98334H15.7374L9.45223 1.6499L3.16699 5.98334Z" fill="#689FF2"/>
<path d="M3.61035 7.57666H5.4434V8.1892H3.61035V7.57666Z" fill="#689FF2"/>
<path d="M8.53613 7.57666H10.3692V8.1892H8.53613V7.57666Z" fill="#689FF2"/>
<path d="M13.4619 7.57666H15.295V8.1892H13.4619V7.57666Z" fill="#689FF2"/>
<path fill-rule="evenodd" clip-rule="evenodd" d="M1.43262 7.07777H17.4725V6.48242H1.43262V7.07777Z" fill="#689FF2"/>
<path d="M8.07715 16.3711H8.26625V16.8692H8.07715V16.3711Z" fill="#689FF2"/>
<path fill-rule="evenodd" clip-rule="evenodd" d="M8.26598 17.8668V17.3682H6.15219H2.90195H1.81738V17.8668H8.26598Z" fill="#689FF2"/>
<path d="M9.84375 15.0342H10.5834V15.7739H9.84375V15.0342Z" fill="#689FF2"/>
<path fill-rule="evenodd" clip-rule="evenodd" d="M17.9629 18.2017H18.2488C18.333 18.2013 18.4136 18.1676 18.4731 18.1081C18.5326 18.0486 18.5663 17.968 18.5667 17.8838V15.1377H17.9629V18.2017Z" fill="white"/>
<path fill-rule="evenodd" clip-rule="evenodd" d="M13.7578 12.084H15.0395L14.9754 8.68848H13.7739L13.7578 12.084Z" fill="#689FF2"/>
<path fill-rule="evenodd" clip-rule="evenodd" d="M9.36934 13.232V12.9009C9.36982 12.6976 9.44588 12.5018 9.58274 12.3515C9.71959 12.2011 9.90745 12.1071 10.1098 12.0875L10.0586 8.68848H8.84731L8.77637 13.2922C8.87385 13.2524 8.97817 13.2319 9.08348 13.232H9.36934Z" fill="#689FF2"/>
<path d="M17.9629 14.1772H18.5667V14.6388H17.9629V14.1772Z" fill="#689FF2"/>
<path fill-rule="evenodd" clip-rule="evenodd" d="M17.8737 13.6782H18.5668V12.9009C18.5664 12.8167 18.5328 12.7361 18.4733 12.6766C18.4137 12.6171 18.3331 12.5834 18.2489 12.583H10.1861C10.1019 12.5834 10.0213 12.6171 9.96179 12.6766C9.90225 12.7361 9.86861 12.8167 9.86816 12.9009V13.232H17.1461C17.2533 13.232 17.3596 13.2532 17.4586 13.2943C17.5577 13.3355 17.6476 13.3958 17.7233 13.4718C17.7838 13.5324 17.8346 13.602 17.8737 13.6782Z" fill="white"/>
</svg>
