<svg width="37" height="37" viewBox="0 0 37 37" fill="none" xmlns="http://www.w3.org/2000/svg">
<g clip-path="url(#clip0_1_3747)">
<path d="M0.385742 14.0293V23.7418C0.385742 24.1272 0.694076 24.5126 1.15658 24.5126H12.5649C12.642 24.2814 12.7191 24.0501 12.7962 23.8189C12.7962 23.7418 12.7962 23.7418 12.8732 23.6647C13.0274 23.3564 13.1045 23.048 13.2587 22.8168C13.3357 22.7397 13.3357 22.6626 13.4128 22.5855C13.4899 22.3543 13.6441 22.2001 13.7212 22.046C13.7982 21.9689 13.8753 21.8147 13.9524 21.7376C14.0295 21.5835 14.1837 21.4293 14.2607 21.2751C14.3378 21.198 14.4149 21.0439 14.492 20.9668C14.5691 20.8126 14.7232 20.6585 14.8003 20.5043C14.8774 20.4272 14.9545 20.273 15.1087 20.196L15.4941 19.8105L15.8024 19.5022L16.1878 19.1168C16.2649 19.0397 16.4191 18.9626 16.4962 18.8855C16.6503 18.8085 16.8045 18.6543 16.8816 18.5772C17.0357 18.5001 17.1128 18.423 17.267 18.346C17.4212 18.2689 17.5753 18.1918 17.7295 18.0376C17.8837 17.9605 17.9607 17.8835 18.1149 17.8064C18.2691 17.7293 18.4232 17.6522 18.5774 17.5751C18.7316 17.498 18.8087 17.421 18.9628 17.421C19.117 17.3439 19.2712 17.2668 19.4253 17.1897C19.5795 17.1126 19.6566 17.1126 19.8107 17.0355C19.9649 16.9585 20.1191 16.9585 20.3503 16.8814C20.5045 16.8043 20.5816 16.8043 20.7357 16.7272C20.8899 16.6501 21.1212 16.6501 21.2753 16.573C21.4295 16.573 21.5066 16.496 21.6607 16.496C21.892 16.496 22.1232 16.4189 22.2774 16.4189C22.3545 16.4189 22.5087 16.4189 22.5857 16.3418C22.8941 16.3418 23.2024 16.2647 23.5878 16.2647C23.8962 16.2647 24.2816 16.2647 24.5899 16.3418C24.667 16.3418 24.8212 16.3418 24.8982 16.4189C25.1295 16.4189 25.3607 16.496 25.5149 16.496C25.6691 16.496 25.7462 16.573 25.9003 16.573C26.0545 16.6501 26.2857 16.6501 26.4399 16.7272C26.5941 16.7272 26.6712 16.8043 26.8253 16.8814C26.9795 16.9585 27.2107 16.9585 27.3649 17.0355C27.5191 17.1126 27.5962 17.1126 27.7503 17.1897L28.2128 17.421C28.367 17.498 28.4441 17.5751 28.5982 17.5751L29.0607 17.8064C29.2149 17.8835 29.292 17.9605 29.4462 18.0376C29.6003 18.1147 29.7545 18.1918 29.9087 18.346C30.0628 18.423 30.1399 18.5001 30.2941 18.5772C30.4482 18.6543 30.6024 18.8085 30.6795 18.8855C30.7566 18.9626 30.9107 19.0397 30.9878 19.1168C31.142 19.1939 31.2191 19.348 31.3732 19.5022C31.4503 19.5793 31.6045 19.6564 31.6816 19.8105C31.8357 19.9647 31.9128 20.0418 32.067 20.196C32.1441 20.273 32.2212 20.4272 32.3753 20.5043C32.5295 20.6585 32.6066 20.8126 32.6837 20.9668C32.7607 21.0439 32.8378 21.198 32.9149 21.2751C32.992 21.4293 33.1462 21.5835 33.2232 21.7376C33.3003 21.8147 33.3774 21.9689 33.4545 22.046C33.6087 22.2772 33.6857 22.4314 33.7628 22.6626C33.8399 22.7397 33.8399 22.8168 33.917 22.8939C34.0712 23.2022 34.2253 23.5105 34.3024 23.8189V23.896C34.3795 24.2043 34.5337 24.4355 34.6107 24.7439H35.8441C36.2295 24.7439 36.6149 24.4355 36.6149 23.973V14.0293H0.385742Z" fill="white"/>
<path d="M35.8441 0.385742H1.15658C0.771159 0.385742 0.385742 0.694076 0.385742 1.15658V4.23991H36.6149V1.15658C36.6149 0.694076 36.3066 0.385742 35.8441 0.385742Z" fill="white"/>
<path d="M0.385742 6.86035H36.6149V11.4083H0.385742V6.86035Z" fill="white"/>
<circle cx="24" cy="28" r="9" fill="white"/>
<path d="M21.6134 23.6952L25.4183 27.5L21.6134 31.3048C21.2512 31.667 21.2512 32.2544 21.6134 32.617C21.9756 32.9792 22.5631 32.9792 22.9256 32.617L27.3865 28.1561C27.7487 27.7939 27.7487 27.2064 27.3865 26.8439L22.9256 22.383C22.5634 22.0208 21.976 22.0208 21.6134 22.383C21.2512 22.7452 21.2512 23.3326 21.6134 23.6952Z" fill="#094EFF"/>
</g>
<defs>
<clipPath id="clip0_1_3747">
<rect width="37" height="37" rx="6" fill="white"/>
</clipPath>
</defs>
</svg>
